<?xml version="1.0" standalone="no"?>
<!DOCTYPE svg PUBLIC "-//W3C//DTD SVG 20010904//EN"
 "https://www.w3.org/TR/2001/REC-SVG-20010904/DTD/svg10.dtd">
<svg version="1.0" xmlns="https://www.w3.org/2000/svg"
 width="500.000000pt" height="500.000000pt" viewBox="0 0 500.000000 500.000000"
 preserveAspectRatio="xMidYMid meet">
<metadata>
Created by potrace 1.11, written by Peter Selinger 2001-2013
</metadata>
<g transform="translate(0.000000,500.000000) scale(0.100000,-0.100000)"
fill="#000000" stroke="none">
<path d="M2320 4766 c-30 -6 -60 -14 -67 -19 -6 -4 -14 -3 -18 3 -9 15 -58 12
-101 -7 -38 -16 -38 -16 -14 -24 15 -4 18 -7 8 -8 -9 -1 -24 -4 -34 -8 -14 -5
-16 -2 -12 14 4 15 1 20 -9 19 -8 -1 -18 -7 -21 -12 -4 -5 -14 -11 -22 -12 -8
-2 -24 -6 -35 -8 -11 -3 -36 -7 -55 -10 -37 -5 -54 -14 -27 -14 11 0 14 -5 10
-16 -4 -12 -14 -14 -44 -9 -32 6 -39 4 -39 -9 0 -9 -4 -17 -10 -17 -32 -4 -40
-3 -39 5 0 5 -5 12 -12 17 -14 9 -52 -28 -43 -42 3 -5 -14 -9 -38 -9 -44 0
-98 -18 -98 -33 0 -9 25 -19 53 -21 39 -2 28 -23 -13 -24 -34 -2 -40 1 -40 18
0 17 -7 20 -45 20 -33 0 -50 -5 -62 -20 -10 -11 -27 -20 -39 -20 -16 0 -24 -8
-29 -29 -3 -15 -5 -32 -4 -37 4 -21 -2 -34 -16 -34 -7 0 -18 -6 -22 -14 -4 -8
-17 -15 -28 -18 -27 -5 -33 -38 -7 -38 11 0 22 -9 25 -20 3 -12 14 -20 26 -20
12 0 21 -4 21 -10 0 -14 -22 -12 -45 4 -12 8 -40 13 -69 12 -40 -2 -53 -7 -65
-26 -10 -15 -11 -21 -3 -16 9 5 12 -2 12 -26 0 -25 -3 -29 -10 -18 -8 12 -10
11 -10 -7 0 -19 -6 -23 -31 -23 -16 0 -28 -4 -25 -9 11 -17 -6 -40 -33 -46
-29 -6 -30 -9 -34 -65 -2 -40 -21 -60 -50 -52 -14 3 -18 1 -13 -6 4 -7 1 -12
-7 -12 -27 0 -47 -35 -47 -83 0 -34 -4 -47 -14 -47 -8 0 -16 4 -18 9 -2 8 -28
15 -70 20 -4 1 -6 30 -4 65 4 72 -4 95 -23 72 -9 -10 -10 -20 -3 -32 7 -13 5
-22 -5 -33 -11 -10 -12 -16 -4 -19 6 -2 11 -25 11 -54 0 -55 15 -78 52 -78 20
-1 21 -2 5 -11 -9 -5 -21 -8 -26 -5 -5 3 -11 -1 -15 -9 -3 -9 -12 -12 -23 -9
-15 5 -15 4 -3 -5 9 -6 18 -7 24 -1 12 12 26 13 26 1 0 -5 -10 -11 -23 -14
-18 -5 -23 -14 -25 -52 -2 -27 -10 -55 -20 -65 -15 -16 -23 -17 -70 -7 -44 9
-55 9 -62 -3 -15 -24 -11 -31 9 -20 28 15 35 12 17 -6 -20 -20 -14 -31 24 -39
38 -8 38 -29 0 -45 -21 -9 -30 -19 -30 -36 0 -13 5 -24 10 -24 16 0 12 -87 -4
-93 -8 -3 -17 -19 -21 -36 -7 -34 -22 -40 -32 -15 -12 31 -33 -16 -33 -73 0
-51 -14 -71 -26 -38 -4 9 -19 15 -40 15 -27 0 -34 4 -34 19 0 21 32 39 38 22
6 -17 22 -2 22 19 0 14 -9 20 -37 22 -32 3 -38 7 -37 26 1 36 -13 25 -20 -15
-10 -64 -7 -93 9 -93 11 0 15 -11 15 -40 0 -35 -3 -40 -23 -40 -19 0 -26 -11
-50 -84 -30 -93 -33 -111 -16 -100 7 4 7 -1 -1 -16 -6 -12 -9 -24 -6 -28 3 -3
6 1 6 9 1 8 10 -8 20 -36 11 -27 17 -59 14 -70 -4 -17 -3 -18 6 -5 9 11 10 -1
6 -55 -9 -95 -17 -135 -27 -135 -5 0 -9 9 -9 20 0 11 -4 20 -9 20 -6 0 -11 19
-13 43 -3 37 -6 42 -25 40 -17 -2 -23 2 -23 17 0 11 5 20 10 20 6 0 10 9 10
20 0 16 -7 20 -31 20 -30 0 -31 -1 -27 -40 2 -28 0 -40 -9 -40 -7 0 -13 -12
-13 -27 0 -16 -5 -46 -11 -67 -7 -27 -8 -46 -1 -60 6 -12 13 -41 15 -66 3 -25
3 -39 0 -32 -10 26 -21 10 -17 -25 11 -116 12 -153 3 -153 -6 0 -7 5 -3 11 4
7 1 10 -7 7 -8 -3 -13 -11 -11 -17 1 -6 -2 -11 -7 -11 -4 0 -6 -12 -3 -26 3
-17 1 -25 -6 -21 -15 10 -23 -19 -29 -109 -5 -76 -4 -83 15 -93 11 -6 20 -19
20 -29 -1 -30 11 -98 22 -128 6 -16 11 -30 10 -32 -1 -1 2 -16 5 -33 11 -47
16 -80 22 -129 3 -25 9 -49 14 -54 5 -6 9 -18 9 -27 0 -9 7 -20 16 -23 8 -3
12 -10 9 -16 -3 -5 -1 -10 4 -10 6 0 11 -11 11 -25 0 -13 14 -40 30 -58 17
-19 30 -43 30 -53 -1 -33 54 -133 73 -134 11 0 17 -8 17 -24 0 -14 11 -38 25
-54 14 -17 25 -37 25 -45 0 -8 7 -17 15 -21 8 -3 15 -12 15 -21 0 -8 5 -15 10
-15 6 0 10 -7 10 -15 0 -8 24 -39 53 -68 28 -29 63 -72 77 -95 13 -23 30 -42
37 -42 7 0 13 -5 13 -10 0 -6 15 -26 34 -45 19 -18 46 -50 61 -69 15 -20 32
-36 39 -36 6 0 31 -18 55 -40 25 -22 50 -40 57 -40 7 0 15 -9 19 -20 3 -11 24
-29 46 -42 21 -12 39 -25 39 -30 0 -4 6 -8 13 -8 8 0 24 -11 37 -25 13 -14 29
-25 36 -25 6 0 17 -7 24 -15 7 -8 20 -15 30 -15 9 0 25 -9 35 -20 23 -25 236
-131 335 -166 41 -14 82 -29 90 -34 24 -11 189 -57 255 -69 33 -7 80 -16 105
-21 153 -31 584 -37 705 -10 301 66 399 91 403 101 2 5 11 9 21 9 9 0 33 9 54
19 20 10 49 22 64 26 45 11 282 133 361 186 40 27 75 49 78 49 6 0 73 51 137
102 15 13 37 26 48 30 10 4 19 14 19 23 0 8 4 15 10 15 11 0 80 67 80 78 0 5
18 21 39 38 22 16 46 40 55 54 8 14 30 41 48 60 19 19 49 58 68 85 19 28 39
53 43 56 5 4 14 15 20 26 7 11 33 51 58 89 54 81 60 92 120 215 68 138 84 175
114 269 15 47 33 99 41 115 7 17 22 77 34 135 12 58 26 119 31 135 14 49 21
137 26 368 2 130 0 223 -5 230 -5 7 -10 36 -11 65 0 29 -4 59 -8 65 -4 6 -8
18 -8 27 -8 87 -46 257 -62 283 -4 7 -15 39 -25 72 -20 73 -41 130 -62 170 -9
17 -16 34 -16 39 0 17 -74 162 -112 218 -21 31 -38 59 -38 63 0 5 -50 86 -60
95 -3 3 -18 25 -35 50 -16 25 -37 54 -47 65 -51 58 -68 79 -68 85 0 10 -155
165 -225 225 -31 28 -73 65 -92 83 -18 17 -40 32 -48 32 -8 0 -39 20 -69 44
-30 25 -79 58 -110 75 -30 16 -68 39 -85 50 -16 12 -34 21 -39 21 -6 0 -12 3
-14 8 -1 4 -25 18 -53 31 -27 13 -58 28 -67 32 -10 5 -23 9 -30 9 -7 0 -35 11
-62 25 -27 14 -61 25 -76 25 -14 0 -35 7 -46 15 -10 8 -27 15 -37 15 -9 0 -25
4 -35 9 -26 14 -140 40 -201 46 -30 3 -59 9 -65 14 -19 15 -126 23 -331 26
-115 1 -223 -3 -255 -9z m-300 -135 c0 -5 -7 -14 -15 -21 -12 -10 -15 -10 -15
2 0 8 3 18 7 21 9 10 23 9 23 -2z m-156 -67 c24 -9 19 -22 -8 -20 -14 0 -22 6
-19 14 6 14 6 14 27 6z m-381 -121 c-7 -2 -19 -2 -25 0 -7 3 -2 5 12 5 14 0
19 -2 13 -5z m-14 -94 c1 -49 -3 -55 -26 -41 -9 6 -11 66 -4 99 1 1 7 0 15 -3
9 -3 14 -23 15 -55z m-52 16 c-2 -5 -10 -10 -17 -10 -7 0 -15 5 -17 10 -2 6 6
11 17 11 11 0 19 -5 17 -11z m-111 -183 c-5 -30 -61 -24 -63 6 -1 14 5 17 32
14 23 -3 32 -9 31 -20z m239 -31 c6 -11 -33 -36 -42 -27 -7 7 16 36 28 36 4 0
10 -4 14 -9z m-345 -40 c0 -18 -18 -21 -30 -6 -10 13 -9 15 9 15 11 0 21 -4
21 -9z m80 -1 c0 -5 -11 -10 -24 -10 -14 0 -28 5 -31 10 -4 6 7 10 24 10 17 0
31 -4 31 -10z m168 -24 c-7 -8 -15 -12 -17 -11 -5 6 10 25 20 25 5 0 4 -6 -3
-14z m477 -26 c-3 -5 -10 -10 -16 -10 -5 0 -9 5 -9 10 0 6 7 10 16 10 8 0 12
-4 9 -10z m-838 -93 c7 -5 19 -7 28 -3 9 3 19 -3 25 -14 13 -25 13 -30 -5 -30
-8 0 -15 5 -15 11 0 6 -9 8 -21 4 -22 -7 -59 18 -59 41 0 14 24 9 47 -9z m278
-17 c7 -12 -20 -42 -29 -33 -3 4 -6 15 -6 25 0 19 25 25 35 8z m-130 -50 c-3
-5 -13 -10 -21 -10 -8 0 -14 -4 -14 -10 0 -5 -9 -10 -20 -10 -11 0 -23 -7 -26
-15 -8 -19 -21 -19 -40 -1 -18 19 -2 30 45 32 19 0 37 6 39 12 2 7 13 12 23
12 11 0 17 -4 14 -10z m-135 -10 c0 -5 -7 -10 -16 -10 -8 0 -12 5 -9 10 3 6
10 10 16 10 5 0 9 -4 9 -10z m-60 -20 c0 -5 12 -10 28 -10 26 -1 26 -1 7 -15
-11 -8 -25 -18 -30 -23 -18 -15 -35 -1 -35 29 0 19 5 29 15 29 8 0 15 -4 15
-10z m-70 -82 c0 6 11 12 25 12 31 0 34 -31 5 -60 -11 -11 -20 -29 -20 -40 0
-12 -10 -31 -23 -43 -13 -12 -26 -30 -30 -40 -5 -14 -11 -16 -27 -7 -27 14
-25 43 3 55 12 6 23 20 25 33 3 20 6 21 19 10 15 -12 16 -7 10 42 -4 37 -3 50
3 40 6 -10 10 -11 10 -2z m10 -343 c0 -25 -4 -45 -10 -45 -5 0 -10 20 -10 45
0 25 5 45 10 45 6 0 10 -20 10 -45z m-100 19 c0 -14 -3 -14 -15 -4 -8 7 -15
14 -15 16 0 2 7 4 15 4 8 0 15 -7 15 -16z m80 -103 c0 -6 -18 -9 -40 -8 -22 1
-40 5 -40 9 0 4 18 8 40 8 22 0 40 -4 40 -9z m-400 -61 c0 -5 -4 -10 -10 -10
-5 0 -10 5 -10 10 0 6 5 10 10 10 6 0 10 -4 10 -10z m240 -20 c0 -5 -18 -10
-40 -10 -22 0 -40 5 -40 10 0 6 18 10 40 10 22 0 40 -4 40 -10z m-207 -110 c9
-11 17 -27 17 -34 0 -31 11 -43 36 -38 14 2 24 0 24 -7 0 -6 7 -11 15 -11 11
0 13 -8 8 -32 -3 -18 -9 -34 -13 -36 -3 -1 -5 -15 -2 -31 2 -16 -1 -37 -7 -48
-9 -16 -11 -14 -12 12 0 17 -2 40 -3 53 -2 12 0 22 4 22 4 0 7 14 7 30 0 28
-2 30 -41 30 -30 0 -37 3 -26 10 13 8 13 10 -2 10 -9 0 -18 -6 -21 -12 -2 -7
-8 -9 -13 -5 -4 4 -3 17 4 27 15 24 16 50 2 50 -5 0 -10 7 -10 15 0 21 12 19
33 -5z m155 2 c2 -7 -7 -12 -23 -12 -22 0 -24 2 -13 15 15 16 30 15 36 -3z
m-258 -104 c0 7 13 12 32 12 17 0 28 -3 25 -7 -4 -3 -2 -12 4 -19 11 -13 15
-122 5 -131 -3 -3 -10 13 -17 36 -7 23 -16 41 -21 41 -4 0 -8 9 -8 20 0 10 -9
24 -20 30 -11 6 -20 16 -20 23 0 7 4 6 10 -3 6 -10 10 -11 10 -2z m4 -83 c-4
-8 -8 -15 -10 -15 -2 0 -4 7 -4 15 0 8 4 15 10 15 5 0 7 -7 4 -15z m130 -82
c4 -9 0 -23 -9 -32 -13 -14 -15 -12 -15 17 0 34 14 43 24 15z m-44 -53 c0 -5
-4 -10 -10 -10 -5 0 -10 5 -10 10 0 6 5 10 10 10 6 0 10 -4 10 -10z m20 -41
c0 -12 -7 -19 -20 -19 -22 0 -29 35 -7 43 18 6 27 -2 27 -24z m-10 -114 c0 -8
-4 -15 -10 -15 -5 0 -7 7 -4 15 4 8 8 15 10 15 2 0 4 -7 4 -15z m-202 -97 c-3
-92 -24 -121 -30 -41 -5 78 1 123 18 123 12 0 14 -15 12 -82z m106 67 c-4 -8
-8 -15 -10 -15 -2 0 -4 7 -4 15 0 8 4 15 10 15 5 0 7 -7 4 -15z m-120 -941 c9
-23 7 -36 -3 -30 -12 8 -21 46 -11 46 4 0 11 -7 14 -16z"/>
<path d="M1230 4370 c-8 -16 -8 -18 4 -14 17 6 30 34 16 34 -5 0 -14 -9 -20
-20z"/>
<path d="M1086 4225 c-3 -8 -15 -15 -28 -18 -13 -2 3 -5 35 -6 63 -1 73 8 28
26 -23 8 -31 8 -35 -2z"/>
<path d="M1042 4140 c0 -14 2 -19 5 -12 2 6 2 18 0 25 -3 6 -5 1 -5 -13z"/>
<path d="M950 4140 c-19 -12 -7 -22 21 -18 19 2 20 5 8 15 -9 7 -20 9 -29 3z"/>
<path d="M953 3979 c-2 -23 3 -25 10 -4 4 8 3 16 -1 19 -4 3 -9 -4 -9 -15z"/>
<path d="M800 3709 c0 -24 4 -38 10 -34 6 3 10 22 10 41 0 19 -4 34 -10 34 -5
0 -10 -18 -10 -41z"/>
<path d="M551 3464 c0 -11 3 -14 6 -6 3 7 2 16 -1 19 -3 4 -6 -2 -5 -13z"/>
<path d="M400 3374 c0 -33 33 -30 38 4 3 17 -2 22 -17 22 -16 0 -21 -6 -21
-26z"/>
<path d="M346 3205 c-4 -11 -6 -24 -6 -29 1 -5 -3 -12 -9 -16 -8 -4 -7 -18 3
-46 l14 -39 7 46 c8 55 2 116 -9 84z"/>
<path d="M311 3104 c0 -11 3 -14 6 -6 3 7 2 16 -1 19 -3 4 -6 -2 -5 -13z"/>
<path d="M300 3070 c0 -5 5 -10 10 -10 6 0 10 5 10 10 0 6 -4 10 -10 10 -5 0
-10 -4 -10 -10z"/>
<path d="M367 2960 c-9 -11 -24 -20 -32 -20 -17 0 -20 -16 -5 -25 15 -9 48 17
53 42 5 28 6 28 -16 3z"/>
<path d="M400 2905 c0 -8 2 -15 4 -15 2 0 6 7 10 15 3 8 1 15 -4 15 -6 0 -10
-7 -10 -15z"/>
<path d="M460 2775 c-10 -12 -10 -15 4 -15 9 0 16 7 16 15 0 8 -2 15 -4 15 -2
0 -9 -7 -16 -15z"/>
<path d="M228 2694 c-3 -5 -2 -20 2 -34 5 -22 7 -23 13 -7 7 19 -6 56 -15 41z"/>
<path d="M232 2570 c0 -19 2 -27 5 -17 2 9 2 25 0 35 -3 9 -5 1 -5 -18z"/>
<path d="M260 2560 c0 -33 3 -40 20 -40 17 0 20 7 20 40 0 33 -3 40 -20 40
-17 0 -20 -7 -20 -40z"/>
<path d="M220 2321 c0 -22 -3 -46 -6 -55 -4 -11 -1 -16 10 -16 13 0 16 11 16
55 0 30 -4 55 -10 55 -5 0 -10 -18 -10 -39z"/>
</g>
</svg>
